<?xml version="1.0" encoding="UTF-8" standalone="no"?><!DOCTYPE svg PUBLIC "-//W3C//DTD SVG 1.1//EN" "http://www.w3.org/Graphics/SVG/1.1/DTD/svg11.dtd"><svg width="100%" height="100%" viewBox="0 0 3201 933" version="1.1" xmlns="http://www.w3.org/2000/svg" xmlns:xlink="http://www.w3.org/1999/xlink" xml:space="preserve" xmlns:serif="http://www.serif.com/" style="fill-rule:evenodd;clip-rule:evenodd;stroke-linejoin:round;stroke-miterlimit:2;"><path d="M768.164,149.056c-16.998,-8.28 -36.61,-17.106 -58.838,-26.477c-22.228,-9.37 -47.615,-17.76 -76.163,-25.169c-28.547,-7.41 -60.69,-13.62 -96.429,-18.632c-35.739,-5.012 -75.4,-7.519 -118.984,-7.519c-52.736,0 -99.697,3.051 -140.884,9.153c-41.187,6.102 -76.054,15.581 -104.601,28.438c-28.548,12.858 -50.339,29.093 -65.376,48.705c-15.036,19.613 -22.554,42.93 -22.554,69.952c-0,22.664 7.082,42.494 21.247,59.492c14.164,16.998 33.341,32.034 57.53,45.109c24.189,13.075 52.519,24.952 84.989,35.63c32.469,10.678 66.901,20.702 103.293,30.073c36.393,9.37 73.875,18.85 112.446,28.438c38.572,9.589 76.054,19.94 112.446,31.054c36.393,11.114 70.824,23.535 103.294,37.264c32.47,13.729 60.799,29.746 84.988,48.051c24.189,18.305 43.366,39.225 57.531,62.761c14.165,23.535 21.247,50.775 21.247,81.719c-0,33.56 -6.32,62.87 -18.959,87.93c-12.639,25.061 -29.746,46.635 -51.32,64.722c-21.574,18.087 -46.852,33.124 -75.836,45.109c-28.983,11.986 -59.927,21.465 -92.833,28.439c-32.906,6.973 -66.901,11.876 -101.986,14.709c-35.085,2.833 -69.625,4.25 -103.621,4.25c-78.014,-0 -148.729,-5.666 -212.144,-16.998c-63.414,-11.332 -123.886,-26.804 -181.417,-46.417l0,-100.024c59.274,35.302 121.926,59.491 187.955,72.567c66.029,13.075 135.437,19.612 208.221,19.612c51.429,0 98.936,-3.051 142.519,-9.152c43.584,-6.102 81.284,-15.799 113.1,-29.092c31.816,-13.293 56.55,-30.618 74.202,-51.974c17.651,-21.356 26.477,-47.506 26.477,-78.451c-0,-24.843 -7.083,-46.634 -21.247,-65.376c-14.165,-18.741 -33.342,-35.193 -57.531,-49.358c-24.189,-14.165 -52.518,-26.695 -84.988,-37.591c-32.47,-10.896 -66.792,-21.029 -102.967,-30.4c-36.174,-9.37 -73.547,-18.523 -112.119,-27.458c-38.572,-8.934 -75.945,-18.632 -112.119,-29.092c-36.175,-10.46 -70.497,-22.227 -102.967,-35.303c-32.47,-13.075 -60.799,-28.438 -84.988,-46.089c-24.189,-17.652 -43.366,-38.027 -57.531,-61.127c-14.165,-23.099 -21.247,-49.903 -21.247,-80.412c-0,-30.073 5.666,-56.768 16.998,-80.085c11.331,-23.317 26.913,-43.475 46.743,-60.472c19.831,-16.998 43.039,-31.272 69.625,-42.821c26.586,-11.55 55.025,-20.703 85.316,-27.458c30.29,-6.756 61.78,-11.659 94.467,-14.71c32.688,-3.051 64.94,-4.576 96.756,-4.576c34.867,0 67.882,1.525 99.044,4.576c31.163,3.051 61.236,7.083 90.219,12.095c28.983,5.012 57.312,10.787 84.988,17.324c27.676,6.538 55.678,13.511 84.008,20.921l-0,94.14Z" style="fill:#fff;fill-rule:nonzero;"/><path d="M2174.39,466.128c0,80.63 -14.6,150.255 -43.802,208.876c-29.201,58.62 -69.298,106.998 -120.291,145.134c-50.993,38.135 -111.138,66.356 -180.437,84.661c-69.298,18.305 -144.044,27.458 -224.238,27.458c-80.63,-0 -155.812,-9.153 -225.546,-27.458c-69.734,-18.305 -130.315,-46.526 -181.744,-84.661c-51.429,-38.136 -91.744,-86.514 -120.945,-145.134c-29.201,-58.621 -43.802,-128.246 -43.802,-208.876c0,-53.608 6.756,-102.313 20.266,-146.114c13.511,-43.802 32.47,-83.027 56.877,-117.676c24.407,-34.649 53.935,-64.613 88.584,-89.892c34.649,-25.278 73.221,-46.308 115.715,-63.087c42.494,-16.78 88.148,-29.202 136.962,-37.265c48.814,-8.063 100.025,-12.094 153.633,-12.094c80.194,-0 154.94,9.153 224.238,27.458c69.299,18.305 129.444,46.525 180.437,84.661c50.993,38.136 91.09,86.514 120.291,145.134c29.202,58.62 43.802,128.245 43.802,208.875Zm-84.334,0c-0,-63.632 -10.352,-119.855 -31.054,-168.669c-20.702,-48.814 -51.32,-89.891 -91.853,-123.233c-40.533,-33.341 -90.981,-58.62 -151.344,-75.836c-60.364,-17.215 -130.425,-25.823 -210.183,-25.823c-79.758,-0 -150.037,8.717 -210.837,26.15c-60.799,17.434 -111.683,42.821 -152.652,76.163c-40.968,33.341 -71.913,74.528 -92.833,123.56c-20.92,49.032 -31.38,104.928 -31.38,167.688c-0,63.633 10.46,119.856 31.38,168.67c20.92,48.813 51.865,89.891 92.833,123.233c40.969,33.341 91.853,58.62 152.652,75.835c60.8,17.216 131.079,25.824 210.837,25.824c79.758,-0 149.819,-8.608 210.183,-25.824c60.363,-17.215 110.811,-42.494 151.344,-75.835c40.533,-33.342 71.151,-74.42 91.853,-123.233c20.702,-48.814 31.054,-105.037 31.054,-168.67Z" style="fill:#fff;fill-rule:nonzero;"/><path d="M2495.39,604.071c-0,40.533 3.268,75.4 9.806,104.601c6.537,29.201 20.266,53.172 41.187,71.913c20.92,18.741 51.102,32.579 90.545,41.514c39.443,8.934 91.853,13.402 157.228,13.402l405.983,-0l0,79.104l-422.327,0c-71.913,0 -131.296,-5.775 -178.148,-17.324c-46.853,-11.55 -84.117,-29.419 -111.793,-53.608c-27.675,-24.189 -46.961,-54.807 -57.857,-91.853c-10.896,-37.046 -16.344,-81.066 -16.344,-132.059l-0,-603.417l81.72,-0l-0,587.727Z" style="fill:#fff;fill-rule:nonzero;"/></svg>